<svg xmlns="http://www.w3.org/2000/svg" width="686" height="312" viewBox="0 0 686 312" role="img" aria-labelledby="ch10-diagram-9157ad82109d-title ch10-diagram-9157ad82109d-description">
<title id="ch10-diagram-9157ad82109d-title">第 6 步：回退——这是关键转折</title>
<desc id="ch10-diagram-9157ad82109d-description">e1 (model_change)
e2 (user: &quot;salt 验证为什么失败?&quot;)
e3 (assistant: read auth.ts)
旧分支还在
e4 (toolResult)                     数据完整保留
e5 (assistant: &quot;问题在 23 行&quot;)
leafId 现在指回 e2</desc>
<rect x="1" y="1" width="684" height="310" rx="14" fill="#faf7f2" stroke="#d9d0c4"/>
<rect x="28" y="24" width="4" height="22" rx="2" fill="#b5523a"/>
<text x="42" y="41" fill="#43382f" font-family="system-ui, 'Microsoft YaHei', sans-serif" font-size="16" font-weight="600">第 6 步：回退——这是关键转折</text>
<path d="M28,58 H658" stroke="#e4ddd4"/>
<g class="diagram-connectors" stroke="#a3543e" stroke-width="1.7" stroke-linecap="butt" stroke-linejoin="round" fill="none">
<path data-row="1" data-column="1" data-glyph="└" d="M43,119 L48,119 M43,119 L43,104"/>
<path data-row="1" data-column="2" data-glyph="─" d="M53,119 L58,119 M53,119 L48,119"/>
<path data-row="1" data-column="3" data-glyph="─" d="M63,119 L68,119 M63,119 L58,119"/>
<path data-row="2" data-column="6" data-glyph="├" d="M93,149 L93,134 M93,149 L98,149 M93,149 L93,164"/>
<path data-row="2" data-column="7" data-glyph="─" d="M103,149 L108,149 M103,149 L98,149"/>
<path data-row="2" data-column="8" data-glyph="─" d="M113,149 L118,149 M113,149 L108,149"/>
<path data-row="2" data-column="46" data-glyph="←" d="M488,149 H498 M492,145 L488,149 L492,153"/>
<path data-row="3" data-column="6" data-glyph="│" d="M93,179 L93,164 M93,179 L93,194"/>
<path data-row="3" data-column="11" data-glyph="└" d="M143,179 L148,179 M143,179 L143,164"/>
<path data-row="3" data-column="12" data-glyph="─" d="M153,179 L158,179 M153,179 L148,179"/>
<path data-row="3" data-column="13" data-glyph="─" d="M163,179 L168,179 M163,179 L158,179"/>
<path data-row="4" data-column="6" data-glyph="│" d="M93,209 L93,194 M93,209 L93,224"/>
<path data-row="4" data-column="16" data-glyph="└" d="M193,209 L198,209 M193,209 L193,194"/>
<path data-row="4" data-column="17" data-glyph="─" d="M203,209 L208,209 M203,209 L198,209"/>
<path data-row="4" data-column="18" data-glyph="─" d="M213,209 L218,209 M213,209 L208,209"/>
<path data-row="5" data-column="6" data-glyph="│" d="M93,239 L93,224 M93,239 L93,254"/>
<path data-row="6" data-column="6" data-glyph="↑" d="M93,254 V284 M89,260 L93,254 L97,260"/>
</g>
<g class="diagram-labels" font-family="'Cascadia Mono', 'Consolas', 'Microsoft YaHei', monospace" font-size="16" fill="#25201d" dominant-baseline="central" xml:space="preserve">
<text data-row="0" data-column="0" x="28" y="89" textLength="170" lengthAdjust="spacingAndGlyphs" style="white-space:pre">e1 (model_change)</text>
<text data-row="1" data-column="5" x="78" y="119" textLength="330" lengthAdjust="spacingAndGlyphs" style="white-space:pre">e2 (user: &quot;salt 验证为什么失败?&quot;)</text>
<text data-row="2" data-column="10" x="128" y="149" textLength="280" lengthAdjust="spacingAndGlyphs" style="white-space:pre">e3 (assistant: read auth.ts)</text>
<text data-row="2" data-column="48" x="508" y="149" textLength="100" lengthAdjust="spacingAndGlyphs" style="white-space:pre">旧分支还在</text>
<text data-row="3" data-column="15" x="178" y="179" textLength="480" lengthAdjust="spacingAndGlyphs" style="white-space:pre">e4 (toolResult)                     数据完整保留</text>
<text data-row="4" data-column="20" x="228" y="209" textLength="300" lengthAdjust="spacingAndGlyphs" style="white-space:pre">e5 (assistant: &quot;问题在 23 行&quot;)</text>
<text data-row="6" data-column="8" x="108" y="269" textLength="180" lengthAdjust="spacingAndGlyphs" style="white-space:pre">leafId 现在指回 e2</text>
</g>
</svg>
